<svg width="148" height="25" xmlns="http://www.w3.org/2000/svg" viewBox="0 0 147.74 25"><title>Asset 1</title><path d="M37,6.3h5.23a4.58,4.58,0,0,1,2.06.47A3.75,3.75,0,0,1,45.77,8a3.21,3.21,0,0,1,0,3.5,3.26,3.26,0,0,1-1.3,1.13v.15A3.5,3.5,0,0,1,46.18,14a3.14,3.14,0,0,1,.62,1.95,3.34,3.34,0,0,1-.59,2,3.82,3.82,0,0,1-1.59,1.31,5.25,5.25,0,0,1-2.21.46H37Zm5,5.45a1.86,1.86,0,0,0,1.32-.46,1.58,1.58,0,0,0,0-2.28,1.75,1.75,0,0,0-1.26-.46h-2.6v3.19Zm.28,5.62a2,2,0,0,0,1.43-.48,1.61,1.61,0,0,0,.51-1.24,1.63,1.63,0,0,0-.52-1.25,2.12,2.12,0,0,0-1.49-.48H39.52v3.45ZM55.25,20A7,7,0,0,1,51.69,19a6.71,6.71,0,0,1-2.51-2.53A7,7,0,0,1,48.26,13a7,7,0,0,1,.92-3.53,6.71,6.71,0,0,1,2.51-2.53,7.31,7.31,0,0,1,7.11,0,6.71,6.71,0,0,1,2.51,2.53A7,7,0,0,1,62.23,13a7,7,0,0,1-.92,3.53A6.71,6.71,0,0,1,58.8,19a7,7,0,0,1-3.56.92Zm0-2.39A4.52,4.52,0,0,0,57.51,17a4.18,4.18,0,0,0,1.62-1.62A4.79,4.79,0,0,0,59.71,13a4.79,4.79,0,0,0-.59-2.39A4.18,4.18,0,0,0,57.51,9a4.52,4.52,0,0,0-2.26-.58A4.47,4.47,0,0,0,53,9a4.2,4.2,0,0,0-1.6,1.62A4.79,4.79,0,0,0,50.8,13a4.79,4.79,0,0,0,.59,2.39A4.2,4.2,0,0,0,53,17,4.47,4.47,0,0,0,55.25,17.57ZM70.6,20A7,7,0,0,1,67,19a6.71,6.71,0,0,1-2.51-2.53A7,7,0,0,1,63.62,13a7,7,0,0,1,.91-3.53A6.71,6.71,0,0,1,67,6.92a7.3,7.3,0,0,1,7.11,0,6.71,6.71,0,0,1,2.51,2.53A7,7,0,0,1,77.58,13a7,7,0,0,1-.91,3.53A6.71,6.71,0,0,1,74.16,19,7,7,0,0,1,70.6,20Zm0-2.39A4.52,4.52,0,0,0,72.86,17a4.18,4.18,0,0,0,1.61-1.62A4.79,4.79,0,0,0,75.06,13a4.79,4.79,0,0,0-.59-2.39A4.18,4.18,0,0,0,72.86,9a4.52,4.52,0,0,0-2.26-.58A4.47,4.47,0,0,0,68.35,9a4.2,4.2,0,0,0-1.61,1.62A4.79,4.79,0,0,0,66.16,13a4.79,4.79,0,0,0,.59,2.39A4.19,4.19,0,0,0,68.35,17,4.47,4.47,0,0,0,70.6,17.57ZM79.83,6.3h2.52V12h.15L87.39,6.3h3v.15L85.6,12l5.34,7.54v.15H87.86l-4-5.69-1.51,1.77v3.92H79.83V6.3ZM93.78,6H97l3.55,9.39h.15L104.27,6h3.27V19.36H105V12.78l.15-2.22H105l-3.4,8.81h-2l-3.42-8.81h-.15l.15,2.22v6.59H93.78V6Zm20.8,0h2.89l5,13.36h-2.78l-1.12-3.19h-5.11l-1.12,3.19h-2.78Zm3.19,7.86L116.6,10.5l-.49-1.61H116l-.49,1.61-1.19,3.36h3.49ZM124.55,6h4.87a4.87,4.87,0,0,1,2.32.54A3.91,3.91,0,0,1,133.33,8a4.23,4.23,0,0,1,.56,2.18,3.52,3.52,0,0,1-.81,2.29A4.62,4.62,0,0,1,131,14l0,.13,3.58,5.13v.15H131.7l-3.45-5h-1.18v5h-2.52Zm4.85,6a1.93,1.93,0,0,0,1.4-.52,1.76,1.76,0,0,0,.54-1.33,1.81,1.81,0,0,0-1.9-1.85h-2.37V12h2.33Zm7.23-6h2.52v5.73h.15L144.2,6h3v.15l-4.84,5.53,5.34,7.54v.15h-3.08l-4-5.69-1.51,1.77v3.92h-2.52V6Z" fill="#fff"/><path d="M12.5,0A12.5,12.5,0,1,0,25,12.5,12.5,12.5,0,0,0,12.5,0Zm3.58,19-3.54-3.44L9,19V9a2,2,0,0,1,2-2h3.08a2,2,0,0,1,2,2Z" fill="#fff"/></svg>